<svg enable-background="new 0 0 36 36" height="512" viewBox="0 0 36 36" width="512" xmlns="http://www.w3.org/2000/svg"><path d="m1.063 15.31c3.655 5.872 3.123 11.798 4.885 14.628s7.088 7.76 20.105-.343 9.951-17.286 8.014-20.399c-9.072-14.574-39.477-4.285-33.004 6.114z" fill="#efefef"/><path d="m24.75 29.25h-13.5c-.828 0-1.5-.672-1.5-1.5v-10.5c0-.828.672-1.5 1.5-1.5h13.5c.828 0 1.5.672 1.5 1.5v10.5c0 .828-.672 1.5-1.5 1.5z" fill="#2fdf84"/><path d="m12 27.75v-10.5c0-.828.672-1.5 1.5-1.5h-2.25c-.828 0-1.5.672-1.5 1.5v10.5c0 .828.672 1.5 1.5 1.5h2.25c-.828 0-1.5-.672-1.5-1.5z" fill="#00b871"/><g fill="#a4afc1"><path d="m7 6.5c-.827 0-1.5-.673-1.5-1.5s.673-1.5 1.5-1.5 1.5.673 1.5 1.5-.673 1.5-1.5 1.5zm0-2c-.276 0-.5.224-.5.5s.224.5.5.5.5-.224.5-.5-.224-.5-.5-.5z"/><path d="m26.625 31.125h1v2h-1z"/><path d="m28.875 28.625h2v1h-2z"/></g><path d="m24.75 30h-13.5c-1.241 0-2.25-1.009-2.25-2.25v-10.5c0-1.241 1.009-2.25 2.25-2.25h13.5c1.24 0 2.25 1.009 2.25 2.25v10.5c0 1.241-1.01 2.25-2.25 2.25zm-13.5-13.5c-.414 0-.75.336-.75.75v10.5c0 .414.336.75.75.75h13.5c.413 0 .75-.336.75-.75v-10.5c0-.414-.337-.75-.75-.75z"/><path d="m13.5 15.75h-1.5v-3.75c0-3.309 2.691-6 6-6s6 2.691 6 6h-1.5c0-2.481-2.019-4.5-4.5-4.5s-4.5 2.019-4.5 4.5z"/></svg>